<svg width="25" height="19" viewBox="0 0 25 19" fill="none" xmlns="http://www.w3.org/2000/svg">
<g clip-path="url(#clip0_4057_1219)">
<path d="M20.6268 1.80152C23.3343 5.78225 24.6714 10.2724 24.1715 15.4416C24.1694 15.4635 24.1581 15.4836 24.1401 15.4967C22.0898 17.0022 20.1033 17.9159 18.1447 18.5218C18.1295 18.5265 18.1131 18.5262 18.098 18.5211C18.0829 18.516 18.0698 18.5063 18.0605 18.4934C17.608 17.8638 17.1969 17.2 16.8367 16.503C16.816 16.462 16.8349 16.4125 16.8774 16.3963C17.5304 16.1503 18.1513 15.8554 18.7485 15.5063C18.7956 15.4788 18.7986 15.4113 18.7551 15.379C18.6284 15.2849 18.5028 15.186 18.3826 15.0871C18.3602 15.0688 18.3299 15.0652 18.3044 15.0775C14.4271 16.868 10.1797 16.868 6.25646 15.0775C6.23099 15.0661 6.20072 15.07 6.17885 15.088C6.05898 15.1869 5.93312 15.2849 5.80756 15.379C5.76411 15.4113 5.76771 15.4788 5.81505 15.5063C6.41228 15.8488 7.03319 16.1503 7.68525 16.3975C7.72751 16.4137 7.74758 16.462 7.72661 16.503C7.3742 17.2009 6.96306 17.8647 6.50218 18.4943C6.4821 18.5197 6.44914 18.5314 6.41798 18.5218C4.46867 17.9159 2.4822 17.0022 0.4319 15.4967C0.414819 15.4836 0.402533 15.4626 0.400735 15.4407C-0.0169955 10.9694 0.834348 6.44211 3.94216 1.80062C3.94965 1.78834 3.96104 1.77875 3.97422 1.77305C5.5034 1.07124 7.14166 0.554921 8.85394 0.260052C8.88511 0.255258 8.91627 0.269642 8.93245 0.297211C9.14401 0.67179 9.38584 1.15215 9.54946 1.54471C11.3543 1.26902 13.1874 1.26902 15.03 1.54471C15.1936 1.16054 15.4271 0.67179 15.6377 0.297211C15.6452 0.283534 15.6569 0.272577 15.671 0.265904C15.6851 0.259231 15.7009 0.257183 15.7162 0.260052C17.4294 0.55582 19.0677 1.07214 20.5957 1.77305C20.6091 1.77875 20.6202 1.78834 20.6268 1.80152ZM10.467 10.303C10.4859 8.98116 9.52219 7.88739 8.31245 7.88739C7.1126 7.88739 6.15817 8.97157 6.15817 10.303C6.15817 11.6341 7.13147 12.7183 8.31245 12.7183C9.5126 12.7183 10.467 11.6341 10.467 10.303ZM18.4327 10.303C18.4516 8.98116 17.4878 7.88739 16.2784 7.88739C15.0782 7.88739 14.1238 8.97157 14.1238 10.303C14.1238 11.6341 15.0971 12.7183 16.2784 12.7183C17.4878 12.7183 18.4327 11.6341 18.4327 10.303Z" fill="black"/>
</g>
<defs>
<clipPath id="clip0_4057_1219">
<rect width="24.0984" height="18.2816" fill="white" transform="translate(0.241577 0.25293)"/>
</clipPath>
</defs>
</svg>
