<svg width="28" height="27" viewBox="0 0 28 27" fill="none" xmlns="http://www.w3.org/2000/svg">
<g clip-path="url(#clip0_4057_1199)">
<path fill-rule="evenodd" clip-rule="evenodd" d="M22.9177 13.3941C22.9177 8.4885 18.9409 4.51172 14.0353 4.51172C9.12973 4.51172 5.15295 8.4885 5.15295 13.3941C5.15295 18.2997 9.12973 22.2765 14.0353 22.2765C18.9409 22.2765 22.9177 18.2997 22.9177 13.3941ZM15.1894 15.3404V22.2013C14.8067 22.251 14.4212 22.2759 14.0353 22.2759C13.438 22.2759 12.8545 22.2165 12.2902 22.104V15.3408H10.8415V12.9259H12.2902V11.4762C12.2902 9.50609 13.108 8.33476 15.4318 8.33476H17.3665V10.7499H16.1572C15.2525 10.7499 15.1927 11.0872 15.1927 11.717L15.1894 12.9257H17.3801L17.1237 15.3404H15.1894Z" fill="black"/>
</g>
<defs>
<clipPath id="clip0_4057_1199">
<rect width="17.9551" height="18.2816" fill="white" transform="translate(5.14685 4.25293)"/>
</clipPath>
</defs>
</svg>
