<svg width="27" height="27" viewBox="0 0 27 27" fill="none" xmlns="http://www.w3.org/2000/svg">
<g clip-path="url(#clip0_4057_1209)">
<path d="M10.488 13.3937C10.488 11.711 11.8517 10.3465 13.5345 10.3465C15.2172 10.3465 16.5816 11.711 16.5816 13.3937C16.5816 15.0764 15.2172 16.4409 13.5345 16.4409C11.8517 16.4409 10.488 15.0764 10.488 13.3937ZM8.84077 13.3937C8.84077 15.986 10.9421 18.0874 13.5345 18.0874C16.1268 18.0874 18.2281 15.986 18.2281 13.3937C18.2281 10.8014 16.1268 8.70003 13.5345 8.70003C10.9421 8.70003 8.84077 10.8014 8.84077 13.3937ZM17.3171 8.51392C17.317 8.73087 17.3812 8.94297 17.5017 9.1234C17.6221 9.30383 17.7934 9.44449 17.9938 9.52759C18.1942 9.61069 18.4147 9.6325 18.6275 9.59026C18.8403 9.54802 19.0358 9.44363 19.1893 9.29029C19.3427 9.13695 19.4473 8.94154 19.4897 8.72878C19.5321 8.51602 19.5105 8.29547 19.4275 8.095C19.3446 7.89454 19.204 7.72317 19.0237 7.60257C18.8434 7.48197 18.6313 7.41755 18.4144 7.41747H18.4139C18.1231 7.4176 17.8443 7.53315 17.6386 7.73873C17.433 7.94432 17.3173 8.22312 17.3171 8.51392ZM9.84158 20.8341C8.95039 20.7935 8.466 20.645 8.1441 20.5196C7.71734 20.3535 7.41284 20.1556 7.09269 19.8359C6.77255 19.5162 6.57437 19.212 6.40896 18.7852C6.28348 18.4635 6.13503 17.9789 6.09452 17.0878C6.0502 16.1242 6.04136 15.8348 6.04136 13.3938C6.04136 10.9528 6.05094 10.6641 6.09452 9.69981C6.1351 8.80862 6.28465 8.32504 6.40896 8.00233C6.5751 7.57557 6.77298 7.27107 7.09269 6.95092C7.4124 6.63077 7.7166 6.4326 8.1441 6.26719C8.46586 6.14171 8.95039 5.99326 9.84158 5.95275C10.8051 5.90843 11.0945 5.89959 13.5345 5.89959C15.9744 5.89959 16.2641 5.90917 17.2284 5.95275C18.1196 5.99333 18.6032 6.14288 18.9259 6.26719C19.3527 6.4326 19.6572 6.63121 19.9773 6.95092C20.2975 7.27063 20.4949 7.57557 20.661 8.00233C20.7865 8.32409 20.935 8.80862 20.9755 9.69981C21.0198 10.6641 21.0286 10.9528 21.0286 13.3938C21.0286 15.8348 21.0198 16.1234 20.9755 17.0878C20.9349 17.9789 20.7857 18.4633 20.661 18.7852C20.4949 19.212 20.297 19.5165 19.9773 19.8359C19.6576 20.1553 19.3527 20.3535 18.9259 20.5196C18.6041 20.6451 18.1196 20.7936 17.2284 20.8341C16.2649 20.8784 15.9755 20.8872 13.5345 20.8872C11.0934 20.8872 10.8048 20.8784 9.84158 20.8341ZM9.76589 4.30829C8.7928 4.3526 8.12787 4.5069 7.54717 4.73286C6.94578 4.9662 6.43668 5.27926 5.92794 5.78719C5.4192 6.29513 5.10695 6.80503 4.8736 7.40642C4.64764 7.98749 4.49335 8.65206 4.44903 9.62515C4.40399 10.5998 4.39368 10.9114 4.39368 13.3937C4.39368 15.876 4.40399 16.1876 4.44903 17.1623C4.49335 18.1354 4.64764 18.7999 4.8736 19.381C5.10695 19.982 5.41927 20.4925 5.92794 21.0002C6.4366 21.5079 6.94578 21.8206 7.54717 22.0546C8.12896 22.2805 8.7928 22.4348 9.76589 22.4791C10.741 22.5234 11.0521 22.5345 13.5345 22.5345C16.0168 22.5345 16.3284 22.5242 17.303 22.4791C18.2762 22.4348 18.9407 22.2805 19.5217 22.0546C20.1228 21.8206 20.6322 21.5082 21.141 21.0002C21.6497 20.4923 21.9613 19.982 22.1953 19.381C22.4213 18.7999 22.5763 18.1354 22.6199 17.1623C22.6642 16.1869 22.6745 15.876 22.6745 13.3937C22.6745 10.9114 22.6642 10.5998 22.6199 9.62515C22.5756 8.65198 22.4213 7.98712 22.1953 7.40642C21.9613 6.8054 21.6489 6.29593 21.141 5.78719C20.633 5.27845 20.1228 4.9662 19.5225 4.73286C18.9407 4.5069 18.2761 4.35187 17.3037 4.30829C16.3291 4.26397 16.0175 4.25293 13.5352 4.25293C11.0528 4.25293 10.741 4.26324 9.76589 4.30829Z" fill="black"/>
<path d="M10.488 13.3937C10.488 11.711 11.8517 10.3465 13.5345 10.3465C15.2172 10.3465 16.5816 11.711 16.5816 13.3937C16.5816 15.0764 15.2172 16.4409 13.5345 16.4409C11.8517 16.4409 10.488 15.0764 10.488 13.3937ZM8.84077 13.3937C8.84077 15.986 10.9421 18.0874 13.5345 18.0874C16.1268 18.0874 18.2281 15.986 18.2281 13.3937C18.2281 10.8014 16.1268 8.70003 13.5345 8.70003C10.9421 8.70003 8.84077 10.8014 8.84077 13.3937ZM17.3171 8.51392C17.317 8.73087 17.3812 8.94297 17.5017 9.1234C17.6221 9.30383 17.7934 9.44449 17.9938 9.52759C18.1942 9.61069 18.4147 9.6325 18.6275 9.59026C18.8403 9.54802 19.0358 9.44363 19.1893 9.29029C19.3427 9.13695 19.4473 8.94154 19.4897 8.72878C19.5321 8.51602 19.5105 8.29547 19.4275 8.095C19.3446 7.89454 19.204 7.72317 19.0237 7.60257C18.8434 7.48197 18.6313 7.41755 18.4144 7.41747H18.4139C18.1231 7.4176 17.8443 7.53315 17.6386 7.73873C17.433 7.94432 17.3173 8.22312 17.3171 8.51392ZM9.84158 20.8341C8.95039 20.7935 8.466 20.645 8.1441 20.5196C7.71734 20.3535 7.41284 20.1556 7.09269 19.8359C6.77255 19.5162 6.57437 19.212 6.40896 18.7852C6.28348 18.4635 6.13503 17.9789 6.09452 17.0878C6.0502 16.1242 6.04136 15.8348 6.04136 13.3938C6.04136 10.9528 6.05094 10.6641 6.09452 9.69981C6.1351 8.80862 6.28465 8.32504 6.40896 8.00233C6.5751 7.57557 6.77298 7.27107 7.09269 6.95092C7.4124 6.63077 7.7166 6.4326 8.1441 6.26719C8.46586 6.14171 8.95039 5.99326 9.84158 5.95275C10.8051 5.90843 11.0945 5.89959 13.5345 5.89959C15.9744 5.89959 16.2641 5.90917 17.2284 5.95275C18.1196 5.99333 18.6032 6.14288 18.9259 6.26719C19.3527 6.4326 19.6572 6.63121 19.9773 6.95092C20.2975 7.27063 20.4949 7.57557 20.661 8.00233C20.7865 8.32409 20.935 8.80862 20.9755 9.69981C21.0198 10.6641 21.0286 10.9528 21.0286 13.3938C21.0286 15.8348 21.0198 16.1234 20.9755 17.0878C20.9349 17.9789 20.7857 18.4633 20.661 18.7852C20.4949 19.212 20.297 19.5165 19.9773 19.8359C19.6576 20.1553 19.3527 20.3535 18.9259 20.5196C18.6041 20.6451 18.1196 20.7936 17.2284 20.8341C16.2649 20.8784 15.9755 20.8872 13.5345 20.8872C11.0934 20.8872 10.8048 20.8784 9.84158 20.8341ZM9.76589 4.30829C8.7928 4.3526 8.12787 4.5069 7.54717 4.73286C6.94578 4.9662 6.43668 5.27926 5.92794 5.78719C5.4192 6.29513 5.10695 6.80503 4.8736 7.40642C4.64764 7.98749 4.49335 8.65206 4.44903 9.62515C4.40399 10.5998 4.39368 10.9114 4.39368 13.3937C4.39368 15.876 4.40399 16.1876 4.44903 17.1623C4.49335 18.1354 4.64764 18.7999 4.8736 19.381C5.10695 19.982 5.41927 20.4925 5.92794 21.0002C6.4366 21.5079 6.94578 21.8206 7.54717 22.0546C8.12896 22.2805 8.7928 22.4348 9.76589 22.4791C10.741 22.5234 11.0521 22.5345 13.5345 22.5345C16.0168 22.5345 16.3284 22.5242 17.303 22.4791C18.2762 22.4348 18.9407 22.2805 19.5217 22.0546C20.1228 21.8206 20.6322 21.5082 21.141 21.0002C21.6497 20.4923 21.9613 19.982 22.1953 19.381C22.4213 18.7999 22.5763 18.1354 22.6199 17.1623C22.6642 16.1869 22.6745 15.876 22.6745 13.3937C22.6745 10.9114 22.6642 10.5998 22.6199 9.62515C22.5756 8.65198 22.4213 7.98712 22.1953 7.40642C21.9613 6.8054 21.6489 6.29593 21.141 5.78719C20.633 5.27845 20.1228 4.9662 19.5225 4.73286C18.9407 4.5069 18.2761 4.35187 17.3037 4.30829C16.3291 4.26397 16.0175 4.25293 13.5352 4.25293C11.0528 4.25293 10.741 4.26324 9.76589 4.30829Z" fill="black"/>
</g>
<defs>
<clipPath id="clip0_4057_1209">
<rect width="18.2816" height="18.2816" fill="white" transform="translate(4.39331 4.25293)"/>
</clipPath>
</defs>
</svg>
