<svg width="28" height="19" viewBox="0 0 28 19" fill="none" xmlns="http://www.w3.org/2000/svg">
<g clip-path="url(#clip0_4057_1223)">
<path fill-rule="evenodd" clip-rule="evenodd" d="M24.1811 0.795419C25.3165 1.09769 26.2089 1.97959 26.5106 3.09763C27.0595 5.12656 27.0595 9.36258 27.0595 9.36258C27.0595 9.36258 27.0595 13.5985 26.5106 15.6274C26.2047 16.7495 25.3124 17.6315 24.1811 17.9296C22.1281 18.4721 13.8908 18.4721 13.8908 18.4721C13.8908 18.4721 5.65783 18.4721 3.60061 17.9296C2.46519 17.6274 1.57273 16.7455 1.27109 15.6274C0.722168 13.5985 0.722168 9.36247 0.722168 9.36247C0.722168 9.36247 0.722168 5.12656 1.27109 3.09763C1.57695 1.97552 2.46942 1.09352 3.60061 0.795419C5.65783 0.25293 13.8908 0.25293 13.8908 0.25293C13.8908 0.25293 22.1281 0.25293 24.1811 0.795419ZM18.0244 9.3935L11.4952 13.311V5.47608L18.0244 9.3935Z" fill="black"/>
</g>
<defs>
<clipPath id="clip0_4057_1223">
<rect width="26.5912" height="18.2816" fill="white" transform="translate(0.722168 0.25293)"/>
</clipPath>
</defs>
</svg>
